<!-- Tab icon: the Trdgo.us bull on a black plate, ringed in copper. A plate is
     kept because a tab strip is whatever colour the browser decides. -->
<svg xmlns="http://www.w3.org/2000/svg" viewBox="0 0 64 64">
  <defs>
    <linearGradient id="g" x1="18" y1="18" x2="48" y2="50" gradientUnits="userSpaceOnUse">
      <stop offset="0" stop-color="#ecc389"/>
      <stop offset="0.55" stop-color="#c88a45"/>
      <stop offset="1" stop-color="#a4692c"/>
    </linearGradient>
  </defs>
  <rect width="64" height="64" rx="14" fill="#111318"/>
  <path d="M 23 11 A 23 23 0 1 0 53 43" fill="none" stroke="url(#g)" stroke-width="2.2" stroke-linecap="round"/>
  <g fill="url(#g)">
    <path d="M25 24C19 22 14 17 13 12c-1-2 2-3 3-1 3 5 8 8 12 9 2 1 0 5-3 4z"/>
    <path d="M39 24c6-2 11-7 12-12 1-2-2-3-3-1-3 5-8 8-12 9-2 1 0 5 3 4z"/>
    <path d="M32 20c7 0 13 4 13 11 0 5-3 9-6 12-2 2-4 4-7 5-3-1-5-3-7-5-3-3-6-7-6-12 0-7 6-11 13-11z"/>
  </g>
  <g fill="#111318">
    <ellipse cx="26.5" cy="30" rx="2.1" ry="2.6"/>
    <ellipse cx="37.5" cy="30" rx="2.1" ry="2.6"/>
    <ellipse cx="29.7" cy="41" rx="1.5" ry="2"/>
    <ellipse cx="34.3" cy="41" rx="1.5" ry="2"/>
  </g>
</svg>
